<?xml version="1.0" standalone="no"?>
<!DOCTYPE svg PUBLIC "-//W3C//DTD SVG 20010904//EN"
 "http://www.w3.org/TR/2001/REC-SVG-20010904/DTD/svg10.dtd">
<svg version="1.0" xmlns="http://www.w3.org/2000/svg"
 width="310.000000pt" height="310.000000pt" viewBox="0 0 310.000000 310.000000"
 preserveAspectRatio="xMidYMid meet">
<metadata>
Created by potrace 1.14, written by Peter Selinger 2001-2017
</metadata>
<g transform="translate(0.000000,310.000000) scale(0.100000,-0.100000)"
fill="#000000" stroke="none">
<path d="M1484 3076 c-10 -10 -13 -16 -7 -12 8 4 11 2 8 -6 -3 -7 -22 -14 -42
-15 -20 -1 -40 -8 -44 -15 -7 -11 -9 -11 -9 0 0 8 -5 10 -12 5 -7 -4 -17 -8
-23 -9 -5 0 -15 -2 -22 -2 -6 -1 -10 -11 -8 -22 2 -11 1 -19 -3 -19 -22 4 -42
-2 -37 -10 3 -5 -7 -11 -22 -13 -22 -2 -27 -8 -25 -23 2 -11 5 -24 5 -30 1 -5
-4 -9 -12 -10 -21 0 -34 -44 -16 -51 15 -6 22 -45 8 -42 -9 1 -41 -9 -63 -22
-8 -4 -14 -13 -12 -20 2 -7 -5 -9 -19 -5 -12 4 -19 3 -16 -1 6 -10 -12 -27
-33 -32 -8 -2 -19 -10 -23 -18 -5 -8 -12 -12 -18 -9 -5 4 -9 1 -9 -6 0 -7 -3
-9 -6 -6 -4 3 -15 -5 -26 -18 -11 -14 -24 -22 -30 -19 -6 4 -8 2 -5 -3 8 -12
-26 -46 -36 -37 -4 4 -9 -1 -13 -10 -3 -9 -9 -14 -14 -11 -4 2 -16 -3 -26 -11
-10 -9 -13 -13 -6 -9 6 3 12 1 12 -4 0 -6 -5 -11 -11 -11 -5 0 -7 -5 -3 -12 4
-6 3 -8 -2 -5 -22 13 -43 -16 -47 -64 -1 -10 -7 -15 -16 -11 -9 3 -12 1 -7 -6
4 -7 1 -15 -8 -18 -21 -8 -20 -24 2 -24 14 0 15 -2 2 -10 -11 -7 -12 -10 -2
-10 10 0 10 -4 -2 -16 -17 -16 -22 -39 -8 -30 5 3 9 -1 9 -9 0 -8 -4 -12 -9
-9 -4 3 -8 0 -8 -6 0 -6 -6 -8 -12 -4 -10 5 -10 4 -1 -6 10 -11 9 -16 -5 -27
-9 -8 -11 -12 -4 -8 19 10 14 -13 -5 -24 -14 -8 -14 -10 -4 -11 12 0 12 -3 3
-12 -7 -7 -12 -20 -12 -30 0 -10 -7 -18 -15 -18 -8 0 -14 -3 -14 -7 3 -21 -2
-33 -16 -33 -14 0 -20 -13 -15 -35 1 -5 -2 -7 -6 -3 -9 10 -35 -12 -28 -23 3
-5 0 -9 -6 -9 -6 0 -9 -4 -5 -10 3 -5 -5 -16 -19 -25 -24 -16 -48 -53 -25 -39
6 3 3 -6 -7 -22 -11 -15 -13 -25 -6 -20 7 4 14 1 18 -8 3 -9 12 -16 18 -16 7
0 12 -11 12 -24 0 -17 -4 -22 -15 -18 -9 3 -12 1 -7 -7 4 -6 0 -23 -9 -37 -9
-13 -13 -29 -10 -34 3 -6 2 -10 -3 -10 -5 0 -8 -11 -7 -25 2 -15 -2 -25 -10
-25 -15 0 -27 -38 -14 -46 5 -3 9 0 9 6 0 7 5 8 13 3 6 -4 17 -8 22 -8 6 -1 9
-6 8 -13 -2 -6 4 -9 11 -6 21 8 14 -49 -8 -71 -10 -10 -16 -25 -13 -34 2 -9
-6 -31 -18 -49 -21 -31 -22 -31 -42 -12 -12 10 -24 16 -27 13 -3 -4 -13 2 -21
13 -8 10 -15 15 -15 10 0 -6 -7 -1 -16 10 -8 10 -13 13 -9 7 3 -7 1 -14 -4
-14 -20 -3 -26 -5 -58 -22 -18 -10 -33 -15 -33 -12 0 3 -8 -3 -18 -12 -11 -10
-17 -21 -15 -25 2 -4 -4 -11 -13 -16 -9 -5 -18 -20 -19 -34 -2 -14 -7 -34 -13
-44 -5 -11 -8 -34 -6 -52 1 -17 -2 -32 -8 -32 -5 0 -8 -5 -6 -12 5 -15 -58
-72 -71 -64 -21 14 -40 -6 -39 -41 1 -19 -5 -38 -12 -43 -8 -5 -14 -31 -16
-64 -1 -30 -5 -59 -8 -64 -3 -6 -1 -24 5 -41 6 -17 9 -40 6 -51 -3 -10 1 -21
8 -24 7 -2 16 -23 20 -45 4 -23 11 -41 16 -41 5 0 8 -3 8 -7 -1 -5 0 -11 1
-15 4 -13 7 -27 9 -39 0 -5 5 -8 10 -4 6 3 8 -4 6 -15 -2 -13 1 -20 11 -20 8
0 12 -4 9 -10 -3 -5 5 -25 19 -43 14 -19 29 -49 32 -68 4 -19 10 -41 15 -49 6
-14 19 -75 23 -120 1 -9 4 -20 7 -25 8 -14 -15 -168 -35 -240 -10 -33 -18 -84
-20 -113 l-2 -52 1377 0 c1096 0 1377 3 1375 13 -6 31 -18 57 -28 57 -7 0 -6
5 1 14 9 11 9 16 -2 23 -7 4 -16 16 -20 26 -3 9 -15 17 -26 17 -13 0 -18 6
-17 17 2 10 -3 23 -10 30 -7 7 -11 22 -9 33 2 11 0 20 -6 20 -5 0 -7 18 -5 39
3 31 1 38 -10 34 -8 -3 -14 0 -14 7 0 6 -5 8 -12 4 -8 -5 -9 -2 -5 9 3 9 0 23
-9 31 -9 10 -11 17 -4 21 7 4 3 14 -11 26 -12 11 -20 22 -17 25 4 3 2 19 -2
35 -6 19 -5 29 2 29 7 0 6 5 -1 14 -12 15 -5 66 9 66 4 0 11 11 14 25 4 14 11
25 17 25 6 0 7 5 3 12 -4 6 -3 8 3 5 13 -8 65 31 58 43 -3 5 0 12 6 16 8 5 7
9 -2 14 -10 7 -10 12 -1 23 7 8 13 28 13 43 0 16 1 69 2 118 1 49 -3 104 -9
123 -7 19 -8 36 -3 39 5 3 7 9 5 13 -9 14 -17 137 -16 231 2 106 7 204 10 208
7 7 5 28 -3 39 -5 7 -6 21 -2 30 12 29 15 152 5 158 -6 4 -7 12 -3 18 8 13 11
28 15 64 1 12 5 21 8 21 3 0 14 0 25 2 l20 1 -20 9 c-11 5 -14 9 -7 9 6 1 12
6 12 12 0 16 -26 39 -35 31 -5 -4 -5 -1 -1 5 6 11 -18 69 -35 83 -4 3 -9 15
-13 28 -4 12 -12 19 -18 16 -7 -4 -8 -2 -4 5 4 6 2 19 -6 28 -11 14 -11 15 0
9 11 -7 11 -4 1 12 -7 12 -16 19 -19 17 -3 -2 -5 12 -5 31 1 19 -3 38 -8 41
-6 4 -7 1 -2 -7 5 -9 4 -11 -3 -6 -7 4 -8 15 -3 29 13 34 11 127 -3 127 -6 0
-4 5 4 10 10 7 11 10 2 10 -7 0 -17 12 -22 26 -6 14 -14 23 -19 19 -5 -3 -21
21 -36 52 -15 32 -36 78 -48 103 -23 47 -24 51 -26 75 0 9 -11 20 -23 25 -13
5 -19 9 -14 9 5 1 3 8 -4 16 -7 8 -17 12 -23 8 -6 -3 -7 -1 -3 5 4 7 2 12 -3
12 -6 0 -11 7 -11 15 0 9 -11 20 -25 25 -14 5 -24 13 -23 17 4 21 -16 63 -33
68 -10 4 -19 13 -19 21 0 8 -6 13 -12 11 -7 -1 -12 4 -11 11 2 6 -3 12 -10 12
-7 0 -23 9 -34 19 -12 11 -24 17 -27 14 -3 -4 -6 -1 -6 6 0 7 -4 9 -10 6 -5
-3 -10 -1 -10 5 0 6 -4 8 -10 5 -5 -3 -10 -1 -10 5 0 7 -7 10 -15 7 -8 -4 -17
-2 -20 4 -4 5 -11 7 -16 4 -5 -4 -9 -2 -9 4 0 20 -103 61 -153 62 -9 0 -16 3
-13 7 2 4 -8 8 -22 9 -15 0 -28 6 -30 12 -2 6 -11 11 -21 11 -9 0 -22 5 -29
12 -9 9 -12 9 -12 -1 0 -11 -3 -11 -15 -1 -8 7 -26 10 -40 8 -14 -3 -25 -2
-25 2 0 4 -91 7 -203 7 -186 -2 -205 -3 -223 -21z"/>
</g>
</svg>
